<?xml version="1.0" encoding="utf-8"?>
<!-- Generator: Adobe Illustrator 25.4.1, SVG Export Plug-In . SVG Version: 6.00 Build 0)  -->
<svg version="1.1" id="Layer_1" xmlns="http://www.w3.org/2000/svg" xmlns:xlink="http://www.w3.org/1999/xlink" x="0px" y="0px"
	 viewBox="0 0 1920 1080" style="enable-background:new 0 0 1920 1080;" xml:space="preserve">
<g>
	<g>
		<path fill="#595A5A" d="M1597.84,743.45c0-15.56,0.29-31.12-0.14-46.67c-0.18-6.5,2.61-10.26,7.8-13.23
			c26.69-15.31,53.37-30.63,79.98-46.08c5.53-3.21,10.54-3.34,16.17-0.06c27.03,15.73,54.18,31.25,81.29,46.84
			c5.28,3.04,7.61,7.65,7.6,13.7c-0.05,30.86,0.3,61.74-0.37,92.59c-0.1,4.56-3.72,10.87-7.62,13.23
			c-27.2,16.43-54.79,32.23-82.58,47.65c-3.21,1.78-9.2,1.52-12.5-0.31c-28.01-15.55-55.69-31.69-83.47-47.65
			c-4.58-2.63-6.34-6.46-6.25-11.83C1598,775.57,1597.84,759.51,1597.84,743.45z M1767.64,715.37c-0.11-0.39-0.22-0.78-0.33-1.16
			c-0.25,0.34-0.5,0.69-0.74,1.03c-19.29,10.99-38.6,21.93-57.81,33.06c-1.67,0.97-3.76,3.13-3.78,4.76
			c-0.25,22.93-0.17,45.87-0.17,70.3c21.09-12.27,41.04-23.81,60.87-35.56c1.25-0.74,2.12-3.18,2.12-4.83
			C1767.86,760.43,1767.73,737.9,1767.64,715.37z M1619.56,714.07c0,23.39,0.21,44.91-0.15,66.41c-0.09,5.11,1.72,7.54,5.97,9.72
			c6.64,3.41,12.9,7.54,19.38,11.26c12.37,7.12,24.79,14.17,38.31,21.89c0-24.38,0.04-47.13-0.1-69.88
			c-0.01-1.38-1.13-3.35-2.33-4.05C1660.88,737.86,1641.03,726.45,1619.56,714.07z M1756.93,694.86
			c-20.06-11.57-39.92-23.09-59.9-34.39c-1.53-0.87-4.37-0.94-5.88-0.09c-20.03,11.22-39.93,22.68-60.58,34.49
			c20.57,11.77,40.44,23.21,60.44,34.43c1.53,0.86,4.38,0.9,5.9,0.04C1716.92,718.02,1736.79,706.48,1756.93,694.86z"/>
		<path fill="#595A5A" d="M1787.07,588.73c7.28,0,14.55-0.03,21.83,0.01c23.06,0.12,39.54,15.77,40.15,38.77
			c0.43,16.3,0.21,32.61,0.04,48.92c-0.09,8.46-4.47,13.28-11.24,13.12c-6.51-0.16-11-5.54-11.03-13.49
			c-0.06-15.3-0.01-30.61-0.02-45.91c-0.01-13.19-5.94-19.12-19.31-19.18c-14.8-0.07-29.61,0.18-44.4-0.16
			c-3.8-0.09-8.75-0.77-11.01-3.2c-2.42-2.6-4.07-8.32-2.81-11.31c1.41-3.32,6.29-6.78,9.99-7.2c9.17-1.02,18.53-0.34,27.81-0.34
			C1787.07,588.75,1787.07,588.74,1787.07,588.73z"/>
		<path fill="#595A5A" d="M1601.29,588.73c8.27,0,16.55-0.09,24.82,0.03c8.12,0.12,12.73,3.91,13.05,10.47
			c0.34,6.9-4.2,11.47-12.67,11.62c-15.29,0.28-30.59,0.06-45.88,0.1c-14.18,0.04-20.4,6.37-20.42,20.74
			c-0.02,14.79,0.03,29.59-0.02,44.38c-0.03,8.43-4.2,13.6-10.72,13.53c-6.22-0.07-10.99-5.11-11.04-12.73
			c-0.11-17.54-0.8-35.15,0.52-52.6c1.67-22.07,17.54-35.43,39.79-35.53C1586.24,588.7,1593.76,588.73,1601.29,588.73z"/>
		<path fill="#585959" d="M1786.9,899.46c-8.78,0-17.57,0.17-26.34-0.05c-8.13-0.2-12.31-4.2-12.24-11.08
			c0.08-6.89,4.2-10.71,12.51-10.81c15.55-0.19,31.11,0,46.67-0.09c13.07-0.08,19.3-6.4,19.31-19.39
			c0.02-15.31-0.02-30.61,0.01-45.92c0.02-7.84,4.54-13.34,10.98-13.51c6.44-0.17,11.22,5.16,11.29,13.28
			c0.15,16.31,0.42,32.63-0.07,48.92c-0.68,22.65-16.98,38.29-39.54,38.63C1801.95,899.55,1794.42,899.46,1786.9,899.46z"/>
		<path fill="#585959" d="M1600.43,899.46c-6.78,0-13.55,0.03-20.33,0c-24.79-0.12-40.73-14.78-41.79-39.46
			c-0.68-16.03-0.29-32.12-0.07-48.17c0.08-5.76,1.89-10.94,8.49-12.64c7.67-1.98,13.3,2.66,13.4,11.58
			c0.17,15.31,0.03,30.61,0.05,45.92c0.02,14.1,6.56,20.69,20.7,20.75c15.06,0.06,30.11-0.07,45.17,0.05
			c8.65,0.07,13.17,4.01,13.12,10.96c-0.05,6.89-4.69,10.87-13.15,10.99C1617.49,899.56,1608.96,899.46,1600.43,899.46z"/>
		<path fill="#D1CDCB" d="M1767.64,715.37l-0.55,0.04l-0.53-0.17c0.25-0.34,0.5-0.69,0.74-1.03
			C1767.42,714.59,1767.53,714.98,1767.64,715.37z"/>
	</g>
	<g>
		<path fill="#585959" d="M141.32,560.13c-14.57,0-25-2.17-31.3-6.5c-6.3-4.33-10.14-10.04-11.51-17.12
			c-1.38-7.09-2.07-14.37-2.07-21.85V192.25c0-7.47,0.78-14.66,2.36-21.55c1.57-6.88,5.51-12.49,11.81-16.83
			c6.29-4.33,16.73-6.5,31.3-6.5h121.05c16.14,0,32.67,2.95,49.6,8.86c16.92,5.91,32.57,15.06,46.94,27.46
			c14.37,12.4,25.98,27.66,34.84,45.76c8.86,18.11,13.29,39.37,13.29,63.77c0,24.41-4.43,45.57-13.29,63.48
			c-8.86,17.92-20.47,32.98-34.84,45.17c-14.38,12.21-30.02,21.26-46.94,27.16c-16.93,5.9-33.66,8.86-50.19,8.86h-75.58v77.35
			c0,7.48-0.79,14.67-2.36,21.55c-1.58,6.89-5.52,12.5-11.81,16.83C166.32,557.96,155.88,560.13,141.32,560.13z M186.79,348.14
			h76.17c8.65,0,17.22-1.86,25.69-5.61c8.46-3.74,15.55-9.74,21.26-18.01c5.7-8.27,8.56-18.9,8.56-31.89
			c0-11.02-2.46-20.67-7.38-28.93c-4.93-8.27-11.51-14.76-19.78-19.49c-8.27-4.72-17.92-7.09-28.93-7.09h-75.58V348.14z"/>
		<path fill="#585959" d="M579.46,564.85c-18.51,0-36.91-3.64-55.21-10.92c-18.31-7.28-34.94-17.61-49.9-31
			c-14.97-13.38-26.87-29.42-35.73-48.13c-8.86-18.69-13.29-39.46-13.29-62.3c0-21.26,4.03-41.04,12.1-59.34
			c8.06-18.31,19.19-34.54,33.36-48.72c14.17-14.17,30.41-25.29,48.72-33.36c18.31-8.06,37.88-12.11,58.75-12.11
			c28.34,0,54.03,6.79,77.06,20.37c23.03,13.58,41.43,31.99,55.21,55.21c13.78,23.23,20.67,49.01,20.67,77.35
			c0,24.02-4.43,45.38-13.29,64.07c-8.86,18.7-20.67,34.75-35.43,48.13c-14.76,13.39-31.1,23.53-49.01,30.41
			C615.57,561.4,597.56,564.85,579.46,564.85z M578.28,475.69c9.45,0,19.09-2.36,28.93-7.09c9.84-4.72,18.1-11.81,24.8-21.26
			c6.69-9.45,10.04-21.45,10.04-36.02c0-12.59-2.76-23.62-8.27-33.07c-5.52-9.45-13.09-16.83-22.73-22.14
			c-9.65-5.31-20.77-7.97-33.36-7.97c-11.81,0-22.35,2.76-31.59,8.27c-9.25,5.52-16.74,13.09-22.44,22.73
			c-5.71,9.65-8.56,20.58-8.56,32.77c0,14.17,3.25,26.08,9.74,35.73c6.5,9.65,14.66,16.74,24.51,21.26
			C559.18,473.43,568.83,475.69,578.28,475.69z"/>
		<path fill="#585959" d="M904.82,562.49c-17.33,0-34.94-3.25-52.85-9.74c-17.92-6.5-34.45-16.04-49.6-28.64
			c-15.16-12.59-27.26-28.34-36.32-47.24c-9.06-18.9-13.58-40.54-13.58-64.95c0-24.4,4.52-45.86,13.58-64.36
			c9.05-18.5,21.05-34.05,36.02-46.65c14.96-12.59,31.39-22.14,49.31-28.64c17.91-6.5,35.33-9.74,52.26-9.74
			c14.56,0,27.65,1.68,39.27,5.02c11.61,3.35,21.45,7.38,29.52,12.1c8.06,4.72,13.88,8.86,17.42,12.4
			c6.69,5.12,12.59,10.24,17.71,15.35c5.11,5.12,7.47,11.81,7.09,20.08c-0.4,4.34-1.77,8.77-4.13,13.29
			c-2.36,4.53-5.31,9.15-8.86,13.88c-12.21,16.53-24.02,24.02-35.43,22.44c-5.9-1.18-11.32-3.15-16.24-5.9
			c-4.93-2.75-9.65-5.51-14.17-8.27c-4.53-2.75-9.36-5.21-14.47-7.38c-5.12-2.16-11.03-3.25-17.71-3.25
			c-11.42,0-21.65,2.66-30.71,7.97c-9.06,5.31-16.24,12.4-21.55,21.26s-7.97,19.19-7.97,31c0,11.42,2.66,21.65,7.97,30.71
			c5.31,9.06,12.4,16.24,21.26,21.55c8.86,5.31,18.79,7.97,29.82,7.97c6.29,0,12-0.78,17.12-2.36c5.11-1.57,9.45-3.44,12.99-5.61
			c3.54-2.16,6.29-3.84,8.27-5.02c4.72-3.15,9.25-6,13.58-8.56c4.33-2.56,8.65-3.84,12.99-3.84c5.9,0,11.71,2.07,17.42,6.2
			c5.7,4.13,12.11,10.73,19.19,19.78c6.69,8.27,10.53,15.94,11.51,23.03c0.98,7.09-0.69,13.88-5.02,20.37
			c-4.34,6.5-11.03,12.5-20.08,18.01c-3.16,2.76-8.77,6.3-16.83,10.63c-8.07,4.34-17.92,8.27-29.53,11.81
			C932.48,560.72,919.38,562.49,904.82,562.49z"/>
		<path fill="#585959" d="M1292.78,479.82c12.2,10.63,18.69,20.77,19.49,30.41c0.78,9.65-4.53,20.77-15.94,33.36
			c-8.66,9.06-16.24,15.06-22.73,18.01c-6.5,2.95-12.9,3.04-19.19,0.29c-6.3-2.76-13.78-7.87-22.44-15.35l-92.71-81.49v50.78
			c0,7.88-0.69,15.16-2.07,21.85c-1.38,6.7-5.12,12.1-11.22,16.24c-6.11,4.13-16.44,6.2-31,6.2c-14.57,0-24.9-2.07-31-6.2
			c-6.11-4.13-9.84-9.64-11.22-16.53c-1.38-6.88-2.07-14.26-2.07-22.14V175.12c0-7.87,0.79-15.25,2.36-22.14
			c1.57-6.88,5.41-12.4,11.51-16.53c6.1-4.13,16.43-6.2,31-6.2c14.17,0,24.3,2.07,30.41,6.2c6.1,4.13,9.83,9.65,11.22,16.53
			c1.38,6.89,2.07,14.47,2.07,22.73v177.74l66.14-63.77c7.87-7.47,15.25-12.59,22.14-15.35c6.88-2.75,13.67-2.95,20.37-0.59
			c6.69,2.36,13.78,7.68,21.26,15.94c12.59,13.78,18.69,24.9,18.31,33.36c-0.4,8.47-6.5,18.6-18.31,30.41l-63.77,57.87
			L1292.78,479.82z"/>
		<path fill="#585959" d="M1484.69,565.44c-27.56,0-51.28-4.53-71.15-13.58c-19.88-9.05-36.12-20.96-48.72-35.73
			c-12.6-14.76-22.05-31.19-28.34-49.31c-6.3-18.1-9.45-36.21-9.45-54.33c0-29.52,6.69-55.7,20.08-78.54
			c13.38-22.83,31.98-40.84,55.8-54.03c23.81-13.18,51.08-19.78,81.78-19.78c22.83,0,42.61,3.64,59.35,10.92
			c16.73,7.29,30.5,16.74,41.33,28.34c10.82,11.62,18.9,24.12,24.21,37.5c5.31,13.39,7.97,26.19,7.97,38.38
			c0,21.65-5.22,37.79-15.65,48.42c-10.43,10.63-23.72,15.94-39.86,15.94H1421.5c0.78,9.84,4.43,18.31,10.92,25.39
			c6.5,7.09,14.66,12.6,24.51,16.53c9.83,3.94,20.27,5.9,31.3,5.9c9.05,0,17.22-0.49,24.51-1.48c7.28-0.98,13.48-2.36,18.6-4.13
			c5.11-1.77,9.74-3.54,13.88-5.31s7.97-3.25,11.51-4.43c3.54-1.18,6.88-1.97,10.04-2.36c5.51-0.39,10.82,1.28,15.94,5.02
			c5.11,3.75,9.64,9.36,13.58,16.83c2.75,4.34,4.62,8.47,5.61,12.4c0.98,3.94,1.48,7.88,1.48,11.81c0,9.84-4.83,18.41-14.47,25.69
			c-9.65,7.29-23.23,13.09-40.75,17.42C1530.64,563.27,1509.49,565.44,1484.69,565.44z M1421.5,390.65h93.3
			c5.9,0,10.43-1.08,13.58-3.25c3.15-2.16,4.72-6.39,4.72-12.7c0-6.69-2.17-12.79-6.5-18.31c-4.34-5.51-10.14-9.74-17.42-12.7
			c-7.29-2.95-15.85-4.43-25.69-4.43c-11.81,0-22.44,2.36-31.89,7.09c-9.45,4.72-16.83,11.03-22.14,18.9
			C1424.16,373.14,1421.5,381.6,1421.5,390.65z"/>
		<path fill="#585959" d="M1665.37,269.6h64.96l81.49-2.36c7.47,0,14.56,0.69,21.26,2.07c6.69,1.38,12.2,5.22,16.53,11.51
			c4.33,6.3,6.5,16.74,6.5,31.3c0,13.39-2.07,23.23-6.2,29.52c-4.13,6.3-9.55,10.33-16.24,12.1c-6.7,1.77-13.98,2.66-21.85,2.66
			l-77.36-1.77l-71.45,0.59c-11.42-0.78-19.39-4.43-23.92-10.92c-4.53-6.5-6.79-17.42-6.79-32.77c0-14.17,2.75-24.7,8.27-31.59
			C1646.08,273.05,1654.34,269.6,1665.37,269.6z M1798.82,560.13c-20.08,0-37.4-2.17-51.96-6.5c-14.57-4.33-26.48-11.02-35.73-20.08
			c-9.25-9.05-16.15-20.57-20.67-34.54c-4.53-13.97-6.79-30.6-6.79-49.9V209.96c0-8.27,0.68-15.55,2.07-21.85
			c1.38-6.29,5.21-11.51,11.51-15.65c6.29-4.13,16.53-6.2,30.71-6.2s24.4,2.17,30.71,6.5c6.29,4.34,10.13,9.95,11.51,16.83
			c1.38,6.89,2.07,14.08,2.07,21.55v234.43c0,6.3,0.49,11.51,1.48,15.65c0.98,4.13,2.45,7.19,4.43,9.15
			c1.96,1.97,4.72,3.35,8.27,4.13c3.54,0.79,7.87,1.18,12.99,1.18c8.65,0,16.33,0.79,23.03,2.36c6.69,1.58,11.9,5.12,15.65,10.63
			c3.74,5.52,5.61,14.76,5.61,27.75c0,14.17-2.17,24.41-6.5,30.71c-4.34,6.3-9.95,10.04-16.83,11.22
			C1813.48,559.54,1806.3,560.13,1798.82,560.13z"/>
	</g>
	<g>
		<g>
			<path fill="#E69742" d="M137.94,897.61c-14.57,0-24.9-2.17-31-6.5c-6.11-4.33-9.95-10.04-11.51-17.12
				c-1.58-7.09-2.36-14.37-2.36-21.85V529.73c0-7.47,0.78-14.66,2.36-21.55c1.57-6.88,5.51-12.49,11.81-16.83
				c6.29-4.33,16.73-6.5,31.3-6.5h122.23c16.53,0,33.26,2.95,50.19,8.86c16.92,5.91,32.48,14.97,46.65,27.16
				c14.17,12.21,25.58,27.37,34.25,45.47c8.65,18.11,12.99,39.56,12.99,64.36c0,16.53-2.46,32.58-7.38,48.12
				c-4.93,15.56-12.31,29.73-22.14,42.52c-9.84,12.8-22.05,23.82-36.61,33.07c-14.57,9.25-31.3,16.04-50.19,20.37H183.41v77.95
				c0,7.48-0.79,14.67-2.36,21.55c-1.58,6.89-5.52,12.5-11.81,16.83C162.94,895.45,152.5,897.61,137.94,897.61z M183.41,685.63
				h82.08c5.11,0,10.63-1.08,16.53-3.25c5.9-2.16,11.31-5.41,16.24-9.74c4.92-4.33,8.95-10.04,12.11-17.12
				c3.15-7.09,4.72-15.55,4.72-25.39c0-11.41-2.36-21.26-7.09-29.53c-4.72-8.27-11.22-14.66-19.49-19.19
				c-8.27-4.52-17.92-6.79-28.93-6.79h-76.17V685.63z M387.13,885.8c-14.57,10.63-26.19,14.85-34.84,12.7
				c-8.66-2.17-17.71-9.94-27.16-23.32L221.2,726.37l100.98-12.99l76.17,109.24c6.69,9.45,10.92,17.52,12.7,24.21
				c1.77,6.7,0.78,12.99-2.95,18.9C404.35,871.63,397.36,878.33,387.13,885.8z"/>
			<path fill="#E69742" d="M581.76,902.34c-18.51,0-36.91-3.64-55.21-10.92c-18.31-7.28-34.94-17.61-49.9-31
				c-14.97-13.38-26.87-29.42-35.73-48.13c-8.86-18.69-13.29-39.46-13.29-62.3c0-21.26,4.03-41.04,12.1-59.35
				c8.06-18.3,19.19-34.54,33.36-48.72s30.41-25.29,48.72-33.36c18.31-8.06,37.88-12.1,58.75-12.1c28.34,0,54.03,6.79,77.06,20.37
				c23.03,13.58,41.43,31.99,55.21,55.21c13.78,23.23,20.67,49.01,20.67,77.36c0,24.02-4.43,45.38-13.29,64.07
				c-8.86,18.7-20.67,34.75-35.43,48.12c-14.76,13.39-31.1,23.53-49.01,30.41C617.88,898.89,599.87,902.34,581.76,902.34z
				 M580.58,813.17c9.45,0,19.09-2.36,28.93-7.09c9.84-4.72,18.1-11.81,24.8-21.26c6.69-9.45,10.04-21.45,10.04-36.02
				c0-12.59-2.76-23.62-8.27-33.07c-5.52-9.45-13.09-16.83-22.73-22.14c-9.65-5.31-20.77-7.97-33.36-7.97
				c-11.81,0-22.35,2.76-31.59,8.27c-9.25,5.52-16.74,13.09-22.44,22.73c-5.71,9.65-8.56,20.58-8.56,32.77
				c0,14.17,3.25,26.08,9.74,35.73c6.5,9.65,14.66,16.74,24.51,21.26C561.48,810.91,571.13,813.17,580.58,813.17z"/>
			<path fill="#E69742" d="M903.58,902.34c-18.51,0-36.91-3.64-55.21-10.92c-18.31-7.28-34.94-17.61-49.9-31
				c-14.97-13.38-26.87-29.42-35.73-48.13c-8.86-18.69-13.29-39.46-13.29-62.3c0-21.26,4.03-41.04,12.1-59.35
				c8.06-18.3,19.19-34.54,33.36-48.72s30.41-25.29,48.72-33.36c18.31-8.06,37.88-12.1,58.75-12.1c28.34,0,54.03,6.79,77.06,20.37
				c23.03,13.58,41.43,31.99,55.21,55.21c13.77,23.23,20.67,49.01,20.67,77.36c0,24.02-4.43,45.38-13.29,64.07
				c-8.86,18.7-20.67,34.75-35.43,48.12c-14.76,13.39-31.1,23.53-49.01,30.41C939.7,898.89,921.69,902.34,903.58,902.34z
				 M902.4,813.17c9.45,0,19.09-2.36,28.93-7.09c9.84-4.72,18.1-11.81,24.8-21.26c6.69-9.45,10.04-21.45,10.04-36.02
				c0-12.59-2.76-23.62-8.27-33.07c-5.52-9.45-13.09-16.83-22.73-22.14c-9.65-5.31-20.77-7.97-33.36-7.97
				c-11.81,0-22.35,2.76-31.59,8.27c-9.25,5.52-16.74,13.09-22.44,22.73c-5.71,9.65-8.56,20.58-8.56,32.77
				c0,14.17,3.25,26.08,9.74,35.73c6.5,9.65,14.66,16.74,24.51,21.26C883.3,810.91,892.95,813.17,902.4,813.17z"/>
			<path fill="#E69742" d="M1126.79,897.61c-14.17,0-24.41-2.17-30.71-6.5c-6.3-4.33-10.04-9.84-11.22-16.53
				c-1.18-6.69-1.77-13.97-1.77-21.85V646.06c0-7.47,0.68-14.56,2.07-21.26c1.38-6.69,5.21-12.11,11.51-16.24
				c6.29-4.13,16.73-6.2,31.3-6.2c14.56,0,25.19,2.86,31.89,8.56c6.69,5.71,10.04,15.06,10.04,28.05l-7.68,6.5
				c0.79-1.96,3.15-5.31,7.09-10.04c3.93-4.72,9.05-9.64,15.35-14.76c6.29-5.11,13.67-9.54,22.14-13.29
				c8.46-3.74,17.61-5.61,27.46-5.61c12.99,0,24.7,1.87,35.13,5.61c10.43,3.75,19.87,9.25,28.34,16.53
				c8.46,7.29,15.84,16.44,22.14,27.46c5.51-7.87,12.2-15.55,20.08-23.03c7.87-7.47,17.12-13.78,27.75-18.9
				c10.63-5.11,22.63-7.68,36.02-7.68c23.22,0,42.81,5.81,58.75,17.42c15.94,11.62,28.05,28.25,36.32,49.9
				c8.27,21.65,12.4,47.83,12.4,78.54v105.7c0,7.48-0.79,14.67-2.36,21.55c-1.58,6.89-5.42,12.4-11.51,16.53
				c-6.11,4.13-16.44,6.2-31,6.2c-14.57,0-25-2.17-31.3-6.5c-6.3-4.33-10.04-9.94-11.22-16.83c-1.18-6.88-1.77-14.07-1.77-21.55
				v-105.7c0-11.81-1.48-21.94-4.43-30.41c-2.95-8.46-7.19-14.96-12.7-19.49c-5.52-4.52-12.6-6.79-21.26-6.79
				c-9.06,0-16.74,2.17-23.03,6.5c-6.3,4.34-11.03,10.63-14.17,18.9c-3.16,8.27-4.72,18.9-4.72,31.89v105.7
				c0,7.88-0.99,15.26-2.95,22.14c-1.97,6.89-6.2,12.4-12.7,16.53c-6.5,4.13-17.03,6-31.59,5.61c-13.78,0-23.62-2.27-29.52-6.79
				c-5.91-4.52-9.45-10.23-10.63-17.12c-1.18-6.88-1.77-13.88-1.77-20.96v-105.7c0-11.81-1.38-22.04-4.13-30.71
				c-2.76-8.66-6.89-15.15-12.4-19.49c-5.52-4.33-12.8-6.5-21.85-6.5c-9.84,0-17.92,2.57-24.21,7.68
				c-6.3,5.12-10.92,11.91-13.88,20.37c-2.95,8.47-4.43,18.01-4.43,28.64v106.29c0,7.88-0.69,15.16-2.07,21.85
				c-1.38,6.7-5.22,12.1-11.51,16.24C1151.79,895.55,1141.35,897.61,1126.79,897.61z"/>
		</g>
	</g>
</g>
</svg>
